name Walk6.mot
datacolumns 19
datarows 20
range 1.51400000 1.53300000
endheader

                time	   L_ground_force_vx	   L_ground_force_vy	   L_ground_force_vz	   L_ground_force_px	   L_ground_force_py	   L_ground_force_pz	   R_ground_force_vx	   R_ground_force_vy	   R_ground_force_vz	   R_ground_force_px	   R_ground_force_py	   R_ground_force_pz	   L_ground_torque_x	   L_ground_torque_y	   L_ground_torque_z	   R_ground_torque_x	   R_ground_torque_y	   R_ground_torque_z	
          1.51400000	          0.00000000	          0.00000000	          0.00000000	          0.00000000	          0.00000000	          0.00000000	          3.12198282	        672.61100602	         44.65054554	         -0.26156803	          0.00000000	         -0.11145081	          0.00000000	          0.00000000	          0.00000000	          0.00000000	          0.47954832	          0.00000000	
          1.51500000	          0.00000000	          0.00000000	          0.00000000	          0.00000000	          0.00000000	          0.00000000	          3.53784649	        673.82124695	         44.71926203	         -0.26103707	          0.00000000	         -0.11155252	          0.00000000	          0.00000000	          0.00000000	          0.00000000	          0.48803325	          0.00000000	
          1.51600000	          0.00000000	          0.00000000	          0.00000000	          0.00000000	          0.00000000	          0.00000000	          3.94344139	        675.07323049	         44.76242289	         -0.26049204	          0.00000000	         -0.11162170	          0.00000000	          0.00000000	          0.00000000	          0.00000000	          0.50615215	          0.00000000	
          1.51700000	          0.00000000	          0.00000000	          0.00000000	          0.00000000	          0.00000000	          0.00000000	          4.33656486	        676.41074090	         44.78929078	         -0.25993310	          0.00000000	         -0.11165414	          0.00000000	          0.00000000	          0.00000000	          0.00000000	          0.53756473	          0.00000000	
          1.51800000	          0.00000000	          0.00000000	          0.00000000	          0.00000000	          0.00000000	          0.00000000	          4.70233417	        677.87007503	         44.82677577	         -0.25937471	          0.00000000	         -0.11165547	          0.00000000	          0.00000000	          0.00000000	          0.00000000	          0.58062210	          0.00000000	
          1.51900000	          0.00000000	          0.00000000	          0.00000000	          0.00000000	          0.00000000	          0.00000000	          5.02404949	        679.42570702	         44.89707444	         -0.25884221	          0.00000000	         -0.11164215	          0.00000000	          0.00000000	          0.00000000	          0.00000000	          0.62625508	          0.00000000	
          1.52000000	          0.00000000	          0.00000000	          0.00000000	          0.00000000	          0.00000000	          0.00000000	          5.31581545	        680.98527752	         44.99430059	         -0.25835168	          0.00000000	         -0.11163359	          0.00000000	          0.00000000	          0.00000000	          0.00000000	          0.66299609	          0.00000000	
          1.52100000	          0.00000000	          0.00000000	          0.00000000	          0.00000000	          0.00000000	          0.00000000	          5.62440090	        682.44582438	         45.09189234	         -0.25789123	          0.00000000	         -0.11164059	          0.00000000	          0.00000000	          0.00000000	          0.00000000	          0.68514932	          0.00000000	
          1.52200000	          0.00000000	          0.00000000	          0.00000000	          0.00000000	          0.00000000	          0.00000000	          5.99179183	        683.76158262	         45.16907065	         -0.25743149	          0.00000000	         -0.11166263	          0.00000000	          0.00000000	          0.00000000	          0.00000000	          0.69579361	          0.00000000	
          1.52300000	          0.00000000	          0.00000000	          0.00000000	          0.00000000	          0.00000000	          0.00000000	          6.42834689	        684.96668716	         45.21698877	         -0.25695545	          0.00000000	         -0.11169083	          0.00000000	          0.00000000	          0.00000000	          0.00000000	          0.70034315	          0.00000000	
          1.52400000	          0.00000000	          0.00000000	          0.00000000	          0.00000000	          0.00000000	          0.00000000	          6.91373227	        686.14403189	         45.23218010	         -0.25647219	          0.00000000	         -0.11171193	          0.00000000	          0.00000000	          0.00000000	          0.00000000	          0.69955132	          0.00000000	
          1.52500000	          0.00000000	          0.00000000	          0.00000000	          0.00000000	          0.00000000	          0.00000000	          7.41375275	        687.37709958	         45.21917712	         -0.25599899	          0.00000000	         -0.11171883	          0.00000000	          0.00000000	          0.00000000	          0.00000000	          0.69039431	          0.00000000	
          1.52600000	          0.00000000	          0.00000000	          0.00000000	          0.00000000	          0.00000000	          0.00000000	          7.90475386	        688.70838157	         45.19146916	         -0.25553656	          0.00000000	         -0.11171842	          0.00000000	          0.00000000	          0.00000000	          0.00000000	          0.67316878	          0.00000000	
          1.52700000	          0.00000000	          0.00000000	          0.00000000	          0.00000000	          0.00000000	          0.00000000	          8.38635298	        690.12034574	         45.15780507	         -0.25506980	          0.00000000	         -0.11172675	          0.00000000	          0.00000000	          0.00000000	          0.00000000	          0.65697908	          0.00000000	
          1.52800000	          0.00000000	          0.00000000	          0.00000000	          0.00000000	          0.00000000	          0.00000000	          8.87285475	        691.57060757	         45.11464709	         -0.25458886	          0.00000000	         -0.11175694	          0.00000000	          0.00000000	          0.00000000	          0.00000000	          0.65348442	          0.00000000	
          1.52900000	          0.00000000	          0.00000000	          0.00000000	          0.00000000	          0.00000000	          0.00000000	          9.37732259	        693.04992098	         45.06587563	         -0.25410286	          0.00000000	         -0.11179675	          0.00000000	          0.00000000	          0.00000000	          0.00000000	          0.66537938	          0.00000000	
          1.53000000	          0.00000000	          0.00000000	          0.00000000	          0.00000000	          0.00000000	          0.00000000	          9.90486874	        694.57210321	         45.03319826	         -0.25362846	          0.00000000	         -0.11180009	          0.00000000	          0.00000000	          0.00000000	          0.00000000	          0.68517844	          0.00000000	
          1.53100000	          0.00000000	          0.00000000	          0.00000000	          0.00000000	          0.00000000	          0.00000000	         10.45526403	        696.11148399	         45.02740418	         -0.25316893	          0.00000000	         -0.11172846	          0.00000000	          0.00000000	          0.00000000	          0.00000000	          0.70270572	          0.00000000	
          1.53200000	          0.00000000	          0.00000000	          0.00000000	          0.00000000	          0.00000000	          0.00000000	         11.02376195	        697.61209414	         45.03030135	         -0.25271743	          0.00000000	         -0.11159955	          0.00000000	          0.00000000	          0.00000000	          0.00000000	          0.71032180	          0.00000000	
          1.53300000	          0.00000000	          0.00000000	          0.00000000	          0.00000000	          0.00000000	          0.00000000	         11.60327826	        699.06882558	         45.02111411	         -0.25226803	          0.00000000	         -0.11147646	          0.00000000	          0.00000000	          0.00000000	          0.00000000	          0.70572154	          0.00000000	
